# xmcd
# 
# Track frame offsets:
#     150
#     20561
#     37636
#     56963
#     80344
#     98484
#     114575
#     130779
#     149316
#     167428
#     188654
#     206872
#     229097
#     249495
#     268598
#     284153
#     300289
#     317978
#     336516
# 
# Disc length: 4705
# 
# Revision: 3
# Processed by: cddbd v1.5.2PL0 Copyright (c) Steve Scherf et al.
# Submitted via: fre:ac v1.0.17
# 
DISCID=0d125f13
DTITLE=Janet Jackson - The Best (DISC2)
DYEAR=2009
DGENRE=Pop
TTITLE0=If
TTITLE1=Again
TTITLE2=Because Of Love
TTITLE3=Any Time, Any Place
TTITLE4=Scream (Michael Jackson and Janet Jackson)
TTITLE5=Runaway
TTITLE6=Got 'Til It's Gone (Featuring Q-Tip and Joni Mitchell)
TTITLE7=Together Again
TTITLE8=I Get Lonely (Janet featuring BLACKstreet)
TTITLE9=Go Deep
TTITLE10=What's It Gonna Be?! (Busta Rhymes featuring Janet)
TTITLE11=Doesn't Really Matter
TTITLE12=All For You (Video Single Mix)
TTITLE13=Someone To Call My Lover
TTITLE14=All Nite (Don't Stop)
TTITLE15=Call On Me (Janet with Nelly)
TTITLE16=Feedback
TTITLE17=Whoops Now
TTITLE18=Make Me
EXTD=
EXTT0=
EXTT1=
EXTT2=
EXTT3=
EXTT4=
EXTT5=
EXTT6=
EXTT7=
EXTT8=
EXTT9=
EXTT10=
EXTT11=
EXTT12=
EXTT13=
EXTT14=
EXTT15=
EXTT16=
EXTT17=
EXTT18=
PLAYORDER=
